# xmcd CD database file
#
# Track frame offsets:
#	150
#	18852
#	35425
#	47745
#	58122
#	82210
#	104050
#	113730
#	126995
#	147037
#	160450
#
# Disc length: 2527 seconds
#
# Revision: 2
# Processed by: cddbd v1.5.1PL2 Copyright (c) Steve Scherf et al.
# Submitted via: CDex 1.50beta10
#
DISCID=9a09dd0b
DTITLE=Kenny Roby - Rather Not know
DYEAR=2002
DGENRE=Blues
TTITLE0=Rather Not Know
TTITLE1=Wilderness
TTITLE2=Bobby Rodan
TTITLE3=I Need A Train
TTITLE4=Leo and Betty
TTITLE5=Elizabeth Jones
TTITLE6=Glad It Ain't Me
TTITLE7=Tidal Wave
TTITLE8=Blues Too Blue to Mention
TTITLE9=Not Gonna Give Up
TTITLE10=Highway Cross
EXTD=Produced by Rob Farris and Kenny Roby\n\nKenny Roby - vocals, acoustic and electric guitar\nScott McCall - acoustic, electric, lap steel, high string and gut string guitar, background vocal\nRob Farris - hammond b-3, wurlitzer, clavinet, background vo
EXTD=cals\nRay Duffey - drums\n\nRoger Gupton :electric bass\nSteve Howell - mandolin, banjo, tenor vocal\nSteve Grothman - upright bass\nDavid Burke - dobro\nJohn Teer - fiddle YEAR: 2002
EXTT0=
EXTT1=
EXTT2=
EXTT3=
EXTT4=
EXTT5=
EXTT6=
EXTT7=
EXTT8=
EXTT9=
EXTT10=
PLAYORDER=
